<?xml version="1.0" encoding="UTF-8" standalone="no"?>
<!-- Generator: Adobe Illustrator 12.0.1, SVG Export Plug-In . SVG Version: 6.00 Build 51448)  -->
<svg
   xmlns:dc="http://purl.org/dc/elements/1.1/"
   xmlns:cc="http://web.resource.org/cc/"
   xmlns:rdf="http://www.w3.org/1999/02/22-rdf-syntax-ns#"
   xmlns:svg="http://www.w3.org/2000/svg"
   xmlns="http://www.w3.org/2000/svg"
   xmlns:sodipodi="http://sodipodi.sourceforge.net/DTD/sodipodi-0.dtd"
   xmlns:inkscape="http://www.inkscape.org/namespaces/inkscape"
   version="1.1"
   id="Layer_1"
   width="132.574"
   height="220.435"
   viewBox="0 0 132.574 220.435"
   style="overflow:visible;enable-background:new 0 0 132.574 220.435;"
   xml:space="preserve"
   sodipodi:version="0.32"
   inkscape:version="0.45.1"
   sodipodi:docname="D-Sorbitol.svg"
   inkscape:output_extension="org.inkscape.output.svg.inkscape"
   sodipodi:docbase="C:\Dokumente und Einstellungen\Jonas Töle\Eigene Dateien"><metadata
   id="metadata104"><rdf:RDF><cc:Work
       rdf:about=""><dc:format>image/svg+xml</dc:format><dc:type
         rdf:resource="http://purl.org/dc/dcmitype/StillImage" /></cc:Work></rdf:RDF></metadata><defs
   id="defs102" /><sodipodi:namedview
   inkscape:window-height="579"
   inkscape:window-width="801"
   inkscape:pageshadow="2"
   inkscape:pageopacity="0.0"
   guidetolerance="10.0"
   gridtolerance="10.0"
   objecttolerance="10.0"
   borderopacity="1.0"
   bordercolor="#666666"
   pagecolor="#ffffff"
   id="base"
   inkscape:zoom="1.7147912"
   inkscape:cx="66.287003"
   inkscape:cy="110.2175"
   inkscape:window-x="44"
   inkscape:window-y="44"
   inkscape:current-layer="Layer_1" />
<g
   id="g3"
   transform="matrix(0.95,0,0,0.95,3.31435,5.510875)">
	<path
   d="M 69.806,11.457 L 72.088,12.031 C 71.611,13.901 70.755,15.327 69.518,16.308 C 68.281,17.289 66.768,17.781 64.981,17.781 C 63.131,17.781 61.627,17.404 60.468,16.649 C 59.309,15.895 58.427,14.801 57.822,13.371 C 57.217,11.94 56.915,10.403 56.915,8.762 C 56.915,6.972 57.256,5.409 57.939,4.076 C 58.622,2.743 59.593,1.729 60.854,1.038 C 62.114,0.347 63.5,0 65.014,0 C 66.731,0 68.174,0.438 69.344,1.314 C 70.515,2.191 71.33,3.422 71.79,5.011 L 69.556,5.538 C 69.158,4.288 68.581,3.378 67.825,2.808 C 67.068,2.238 66.116,1.953 64.97,1.953 C 63.652,1.953 62.55,2.269 61.664,2.902 C 60.779,3.535 60.157,4.384 59.798,5.451 C 59.439,6.518 59.26,7.617 59.26,8.75 C 59.26,10.211 59.472,11.486 59.897,12.576 C 60.322,13.666 60.982,14.48 61.879,15.019 C 62.776,15.558 63.746,15.828 64.791,15.828 C 66.062,15.828 67.137,15.461 68.018,14.726 C 68.899,13.991 69.494,12.902 69.806,11.457 z "
   id="path5" />
	<path
   d="M 74.982,17.484 L 74.982,0.297 L 77.263,0.297 L 77.263,7.36 L 86.154,7.36 L 86.154,0.297 L 88.435,0.297 L 88.435,17.485 L 86.154,17.485 L 86.154,9.391 L 77.263,9.391 L 77.263,17.485 L 74.982,17.485 L 74.982,17.484 z "
   id="path7" />
</g>
<g
   id="g9"
   transform="matrix(0.95,0,0,0.95,3.31435,5.510875)">
	<path
   d="M 98.345,20.469 L 98.345,21.985 L 89.814,21.985 C 89.802,21.604 89.864,21.238 90,20.886 C 90.218,20.306 90.567,19.735 91.048,19.173 C 91.529,18.611 92.219,17.962 93.118,17.226 C 94.514,16.073 95.46,15.162 95.958,14.492 C 96.456,13.822 96.705,13.187 96.705,12.589 C 96.705,11.963 96.479,11.436 96.03,11.005 C 95.579,10.575 94.993,10.36 94.269,10.36 C 93.503,10.36 92.892,10.589 92.433,11.048 C 91.974,11.507 91.742,12.142 91.736,12.953 L 90.111,12.781 C 90.222,11.565 90.642,10.639 91.371,10.003 C 92.099,9.365 93.077,9.047 94.305,9.047 C 95.544,9.047 96.525,9.39 97.247,10.076 C 97.969,10.762 98.33,11.612 98.33,12.626 C 98.33,13.142 98.224,13.649 98.013,14.147 C 97.802,14.645 97.45,15.17 96.96,15.721 C 96.469,16.272 95.655,17.028 94.52,17.989 C 93.57,18.787 92.958,19.327 92.687,19.612 C 92.416,19.895 92.191,20.181 92.014,20.468 L 98.345,20.468 L 98.345,20.469 z "
   id="path11" />
</g>
<g
   id="g13"
   transform="matrix(0.95,0,0,0.95,3.31435,5.510875)">
	<path
   d="M 99.672,9.119 C 99.672,6.266 100.438,4.034 101.971,2.421 C 103.502,0.807 105.48,0 107.902,0 C 109.49,0 110.92,0.379 112.193,1.137 C 113.467,1.896 114.439,2.952 115.107,4.308 C 115.775,5.664 116.109,7.202 116.109,8.92 C 116.109,10.663 115.757,12.222 115.054,13.597 C 114.351,14.972 113.354,16.014 112.064,16.721 C 110.775,17.428 109.383,17.782 107.89,17.782 C 106.273,17.782 104.826,17.391 103.552,16.61 C 102.278,15.829 101.314,14.761 100.656,13.41 C 99.998,12.059 99.672,10.628 99.672,9.119 z M 102.016,9.148 C 102.016,11.218 102.573,12.849 103.688,14.041 C 104.801,15.232 106.2,15.828 107.879,15.828 C 109.592,15.828 111,15.226 112.108,14.023 C 113.213,12.82 113.766,11.113 113.766,8.902 C 113.766,7.504 113.53,6.283 113.057,5.24 C 112.584,4.197 111.892,3.388 110.981,2.814 C 110.071,2.24 109.049,1.953 107.915,1.953 C 106.306,1.953 104.919,2.506 103.759,3.611 C 102.596,4.717 102.016,6.563 102.016,9.148 z "
   id="path15" />
	<path
   d="M 119.121,17.484 L 119.121,0.297 L 121.402,0.297 L 121.402,7.36 L 130.293,7.36 L 130.293,0.297 L 132.574,0.297 L 132.574,17.485 L 130.293,17.485 L 130.293,9.391 L 121.402,9.391 L 121.402,17.485 L 119.121,17.485 L 119.121,17.484 z "
   id="path17" />
</g>
<path
   d="M 65.2192,50.051625 L 64.4117,50.859125 L 63.60325,50.051625 L 63.60325,24.496625 L 65.2192,24.496625 L 65.2192,50.051625 z "
   id="polygon19" />
<path
   d="M 65.2192,87.766625 L 64.4117,88.574125 L 63.60325,87.766625 L 63.60325,51.666625 L 64.4117,50.859125 L 65.2192,51.666625 L 65.2192,87.766625 z "
   id="polygon21" />
<path
   d="M 65.2192,125.43413 L 64.4117,126.24163 L 63.60325,125.43413 L 63.60325,89.381625 L 64.4117,88.574125 L 65.2192,89.381625 L 65.2192,125.43413 z "
   id="polygon23" />
<path
   d="M 65.2192,163.14913 L 64.4117,163.95568 L 63.60325,163.14913 L 63.60325,127.04913 L 64.4117,126.24163 L 65.2192,127.04913 L 65.2192,163.14913 z "
   id="polygon25" />
<g
   id="g27"
   transform="matrix(0.95,0,0,0.95,3.31435,5.510875)">
	<path
   d="M 69.806,209.907 L 72.088,210.481 C 71.611,212.351 70.755,213.777 69.518,214.758 C 68.281,215.739 66.768,216.231 64.981,216.231 C 63.131,216.231 61.627,215.854 60.468,215.099 C 59.309,214.345 58.427,213.251 57.822,211.821 C 57.217,210.39 56.915,208.853 56.915,207.212 C 56.915,205.422 57.256,203.859 57.939,202.526 C 58.622,201.193 59.593,200.179 60.854,199.488 C 62.114,198.797 63.5,198.45 65.014,198.45 C 66.731,198.45 68.174,198.888 69.344,199.764 C 70.515,200.641 71.33,201.872 71.79,203.461 L 69.556,203.988 C 69.158,202.738 68.581,201.828 67.825,201.258 C 67.068,200.688 66.116,200.403 64.97,200.403 C 63.652,200.403 62.55,200.719 61.664,201.352 C 60.779,201.985 60.157,202.834 59.798,203.901 C 59.439,204.968 59.26,206.067 59.26,207.2 C 59.26,208.661 59.472,209.936 59.897,211.026 C 60.322,212.116 60.982,212.93 61.879,213.469 C 62.776,214.008 63.746,214.278 64.791,214.278 C 66.062,214.278 67.137,213.911 68.018,213.176 C 68.899,212.441 69.494,211.353 69.806,209.907 z "
   id="path29" />
	<path
   d="M 74.982,215.935 L 74.982,198.747 L 77.263,198.747 L 77.263,205.81 L 86.154,205.81 L 86.154,198.747 L 88.435,198.747 L 88.435,215.935 L 86.154,215.935 L 86.154,207.841 L 77.263,207.841 L 77.263,215.935 L 74.982,215.935 z "
   id="path31" />
</g>
<g
   id="g33"
   transform="matrix(0.95,0,0,0.95,3.31435,5.510875)">
	<path
   d="M 98.345,218.919 L 98.345,220.435 L 89.814,220.435 C 89.802,220.054 89.864,219.688 90,219.336 C 90.218,218.756 90.567,218.185 91.048,217.623 C 91.529,217.061 92.219,216.412 93.118,215.676 C 94.514,214.523 95.46,213.612 95.958,212.942 C 96.456,212.272 96.705,211.637 96.705,211.039 C 96.705,210.413 96.479,209.886 96.03,209.455 C 95.579,209.025 94.993,208.81 94.269,208.81 C 93.503,208.81 92.892,209.039 92.433,209.498 C 91.974,209.957 91.742,210.592 91.736,211.403 L 90.111,211.231 C 90.222,210.015 90.642,209.089 91.371,208.453 C 92.099,207.815 93.077,207.497 94.305,207.497 C 95.544,207.497 96.525,207.84 97.247,208.526 C 97.969,209.212 98.33,210.062 98.33,211.076 C 98.33,211.592 98.224,212.099 98.013,212.597 C 97.802,213.095 97.45,213.62 96.96,214.171 C 96.469,214.722 95.655,215.478 94.52,216.439 C 93.57,217.237 92.958,217.777 92.687,218.062 C 92.416,218.345 92.191,218.631 92.014,218.918 L 98.345,218.918 L 98.345,218.919 z "
   id="path35" />
</g>
<g
   id="g37"
   transform="matrix(0.95,0,0,0.95,3.31435,5.510875)">
	<path
   d="M 99.672,207.569 C 99.672,204.716 100.438,202.484 101.971,200.871 C 103.502,199.257 105.481,198.45 107.903,198.45 C 109.491,198.45 110.921,198.829 112.194,199.587 C 113.468,200.346 114.44,201.402 115.108,202.758 C 115.776,204.114 116.11,205.652 116.11,207.37 C 116.11,209.113 115.758,210.672 115.055,212.047 C 114.352,213.422 113.355,214.464 112.065,215.171 C 110.776,215.878 109.384,216.232 107.891,216.232 C 106.274,216.232 104.827,215.841 103.553,215.06 C 102.279,214.279 101.315,213.211 100.657,211.86 C 99.999,210.509 99.672,209.078 99.672,207.569 z M 102.016,207.599 C 102.016,209.669 102.573,211.3 103.688,212.492 C 104.801,213.683 106.2,214.279 107.879,214.279 C 109.592,214.279 111,213.677 112.108,212.474 C 113.213,211.271 113.766,209.564 113.766,207.353 C 113.766,205.955 113.53,204.734 113.057,203.691 C 112.584,202.648 111.892,201.839 110.981,201.265 C 110.071,200.691 109.049,200.404 107.915,200.404 C 106.306,200.404 104.919,200.957 103.759,202.062 C 102.596,203.167 102.016,205.013 102.016,207.599 z "
   id="path39" />
	<path
   d="M 119.121,215.935 L 119.121,198.747 L 121.402,198.747 L 121.402,205.81 L 130.293,205.81 L 130.293,198.747 L 132.574,198.747 L 132.574,215.935 L 130.293,215.935 L 130.293,207.841 L 121.402,207.841 L 121.402,215.935 L 119.121,215.935 z "
   id="path41" />
</g>
<path
   d="M 65.2192,191.83913 L 63.60325,191.83913 L 63.60325,164.76413 L 64.4117,163.95568 L 65.2192,164.76413 L 65.2192,191.83913 z "
   id="polygon43" />
<g
   id="g45"
   transform="matrix(0.95,0,0,0.95,3.31435,5.510875)">
	<path
   d="M 95.77,48.819 C 95.77,45.966 96.536,43.734 98.067,42.121 C 99.6,40.507 101.576,39.7 104,39.7 C 105.586,39.7 107.017,40.079 108.291,40.837 C 109.564,41.596 110.535,42.652 111.204,44.008 C 111.873,45.364 112.207,46.902 112.207,48.62 C 112.207,50.363 111.855,51.922 111.151,53.297 C 110.447,54.672 109.451,55.714 108.162,56.421 C 106.871,57.128 105.48,57.482 103.988,57.482 C 102.369,57.482 100.924,57.091 99.65,56.31 C 98.375,55.529 97.41,54.461 96.754,53.11 C 96.098,51.759 95.77,50.328 95.77,48.819 z M 98.113,48.849 C 98.113,50.919 98.67,52.55 99.783,53.742 C 100.898,54.933 102.295,55.529 103.976,55.529 C 105.687,55.529 107.097,54.927 108.203,53.724 C 109.309,52.521 109.863,50.814 109.863,48.603 C 109.863,47.205 109.627,45.984 109.153,44.941 C 108.679,43.898 107.988,43.089 107.078,42.515 C 106.167,41.941 105.144,41.654 104.012,41.654 C 102.401,41.654 101.016,42.207 99.854,43.312 C 98.693,44.417 98.113,46.263 98.113,48.849 z "
   id="path47" />
	<path
   d="M 115.219,57.185 L 115.219,39.997 L 117.5,39.997 L 117.5,47.06 L 126.391,47.06 L 126.391,39.997 L 128.672,39.997 L 128.672,57.185 L 126.391,57.185 L 126.391,49.091 L 117.5,49.091 L 117.5,57.185 L 115.219,57.185 z "
   id="path49" />
</g>
<path
   d="M 92.1517,50.051625 L 92.1517,51.666625 L 65.2192,51.666625 L 64.4117,50.859125 L 65.2192,50.051625 L 92.1517,50.051625 z "
   id="polygon51" />
<g
   id="g53"
   transform="matrix(0.95,0,0,0.95,3.31435,5.510875)">
	<path
   d="M 97.301,96.885 L 97.301,79.697 L 99.582,79.697 L 99.582,86.76 L 108.473,86.76 L 108.473,79.697 L 110.754,79.697 L 110.754,96.885 L 108.473,96.885 L 108.473,88.791 L 99.582,88.791 L 99.582,96.885 L 97.301,96.885 z "
   id="path55" />
</g>
<path
   d="M 93.5767,87.766625 L 93.5767,89.381625 L 65.2192,89.381625 L 64.4117,88.574125 L 65.2192,87.766625 L 93.5767,87.766625 z "
   id="polygon57" />
<g
   id="g59"
   transform="matrix(0.95,0,0,0.95,3.31435,5.510875)">
	<path
   d="M 95.77,128.17 C 95.77,125.317 96.536,123.085 98.067,121.472 C 99.6,119.858 101.577,119.051 104.001,119.051 C 105.587,119.051 107.018,119.43 108.292,120.188 C 109.565,120.947 110.536,122.003 111.205,123.359 C 111.874,124.715 112.208,126.253 112.208,127.971 C 112.208,129.714 111.856,131.273 111.152,132.648 C 110.448,134.023 109.452,135.065 108.163,135.772 C 106.872,136.479 105.481,136.833 103.989,136.833 C 102.37,136.833 100.925,136.442 99.651,135.661 C 98.376,134.88 97.411,133.812 96.755,132.461 C 96.099,131.11 95.77,129.679 95.77,128.17 z M 98.113,128.199 C 98.113,130.269 98.67,131.9 99.783,133.092 C 100.898,134.283 102.295,134.879 103.976,134.879 C 105.687,134.879 107.097,134.277 108.203,133.074 C 109.309,131.871 109.863,130.164 109.863,127.953 C 109.863,126.555 109.627,125.334 109.153,124.291 C 108.679,123.248 107.988,122.439 107.078,121.865 C 106.167,121.291 105.144,121.004 104.012,121.004 C 102.401,121.004 101.016,121.557 99.854,122.662 C 98.693,123.768 98.113,125.613 98.113,128.199 z "
   id="path61" />
	<path
   d="M 115.219,136.535 L 115.219,119.347 L 117.5,119.347 L 117.5,126.41 L 126.391,126.41 L 126.391,119.347 L 128.672,119.347 L 128.672,136.535 L 126.391,136.535 L 126.391,128.441 L 117.5,128.441 L 117.5,136.535 L 115.219,136.535 z "
   id="path63" />
</g>
<path
   d="M 92.1517,125.43413 L 92.1517,127.04913 L 65.2192,127.04913 L 64.4117,126.24163 L 65.2192,125.43413 L 92.1517,125.43413 z "
   id="polygon65" />
<g
   id="g67"
   transform="matrix(0.95,0,0,0.95,3.31435,5.510875)">
	<path
   d="M 95.77,167.869 C 95.77,165.016 96.536,162.784 98.067,161.171 C 99.6,159.557 101.577,158.75 104.001,158.75 C 105.587,158.75 107.018,159.129 108.292,159.887 C 109.565,160.646 110.536,161.702 111.205,163.058 C 111.874,164.414 112.208,165.952 112.208,167.67 C 112.208,169.413 111.856,170.972 111.152,172.347 C 110.448,173.722 109.452,174.764 108.163,175.471 C 106.872,176.178 105.481,176.532 103.989,176.532 C 102.37,176.532 100.925,176.141 99.651,175.36 C 98.376,174.579 97.411,173.511 96.755,172.16 C 96.099,170.809 95.77,169.378 95.77,167.869 z M 98.113,167.898 C 98.113,169.968 98.67,171.599 99.783,172.791 C 100.898,173.982 102.295,174.578 103.976,174.578 C 105.687,174.578 107.097,173.976 108.203,172.773 C 109.309,171.57 109.863,169.863 109.863,167.652 C 109.863,166.254 109.627,165.033 109.153,163.99 C 108.679,162.947 107.988,162.138 107.078,161.564 C 106.167,160.99 105.144,160.703 104.012,160.703 C 102.401,160.703 101.016,161.256 99.854,162.361 C 98.693,163.467 98.113,165.313 98.113,167.898 z "
   id="path69" />
	<path
   d="M 115.219,176.234 L 115.219,159.046 L 117.5,159.046 L 117.5,166.109 L 126.391,166.109 L 126.391,159.046 L 128.672,159.046 L 128.672,176.234 L 126.391,176.234 L 126.391,168.14 L 117.5,168.14 L 117.5,176.234 L 115.219,176.234 z "
   id="path71" />
</g>
<path
   d="M 92.1517,163.14913 L 92.1517,164.76413 L 65.2192,164.76413 L 64.4117,163.95568 L 65.2192,163.14913 L 92.1517,163.14913 z "
   id="polygon73" />
<g
   id="g75"
   transform="matrix(0.95,0,0,0.95,3.31435,5.510875)">
	<path
   d="M 17.95,176.234 L 17.95,159.046 L 20.231,159.046 L 20.231,166.109 L 29.122,166.109 L 29.122,159.046 L 31.403,159.046 L 31.403,176.234 L 29.122,176.234 L 29.122,168.14 L 20.231,168.14 L 20.231,176.234 L 17.95,176.234 z "
   id="path77" />
</g>
<path
   d="M 35.3892,164.76413 L 35.3892,163.14913 L 63.60325,163.14913 L 64.4117,163.95568 L 63.60325,164.76413 L 35.3892,164.76413 z "
   id="polygon79" />
<g
   id="g81"
   transform="matrix(0.95,0,0,0.95,3.31435,5.510875)">
	<path
   d="M 17.95,136.535 L 17.95,119.347 L 20.231,119.347 L 20.231,126.41 L 29.122,126.41 L 29.122,119.347 L 31.403,119.347 L 31.403,136.535 L 29.122,136.535 L 29.122,128.441 L 20.231,128.441 L 20.231,136.535 L 17.95,136.535 z "
   id="path83" />
</g>
<path
   d="M 35.3892,127.04913 L 35.3892,125.43413 L 63.60325,125.43413 L 64.4117,126.24163 L 63.60325,127.04913 L 35.3892,127.04913 z "
   id="polygon85" />
<g
   id="g87"
   transform="matrix(0.95,0,0,0.95,3.31435,5.510875)">
	<path
   d="M 0,96.885 L 0,79.697 L 2.281,79.697 L 2.281,86.76 L 11.172,86.76 L 11.172,79.697 L 13.453,79.697 L 13.453,96.885 L 11.172,96.885 L 11.172,88.791 L 2.281,88.791 L 2.281,96.885 L 0,96.885 z "
   id="path89" />
	<path
   d="M 16.551,88.52 C 16.551,85.667 17.317,83.435 18.849,81.822 C 20.381,80.208 22.359,79.401 24.782,79.401 C 26.369,79.401 27.799,79.78 29.073,80.538 C 30.347,81.297 31.318,82.353 31.987,83.709 C 32.656,85.065 32.989,86.603 32.989,88.321 C 32.989,90.064 32.637,91.623 31.934,92.998 C 31.231,94.373 30.234,95.415 28.944,96.122 C 27.654,96.829 26.263,97.183 24.77,97.183 C 23.152,97.183 21.706,96.792 20.432,96.011 C 19.158,95.23 18.193,94.162 17.536,92.811 C 16.879,91.46 16.551,90.028 16.551,88.52 z M 18.895,88.549 C 18.895,90.619 19.452,92.25 20.566,93.442 C 21.68,94.634 23.078,95.229 24.758,95.229 C 26.47,95.229 27.879,94.627 28.986,93.424 C 30.092,92.221 30.645,90.514 30.645,88.303 C 30.645,86.905 30.409,85.684 29.936,84.641 C 29.463,83.598 28.771,82.789 27.86,82.215 C 26.949,81.641 25.927,81.354 24.794,81.354 C 23.184,81.354 21.798,81.907 20.637,83.012 C 19.476,84.117 18.895,85.963 18.895,88.549 z "
   id="path91" />
</g>
<path
   d="M 36.8142,89.381625 L 36.8142,87.766625 L 63.60325,87.766625 L 64.4117,88.574125 L 63.60325,89.381625 L 36.8142,89.381625 z "
   id="polygon93" />
<g
   id="g95"
   transform="matrix(0.95,0,0,0.95,3.31435,5.510875)">
	<path
   d="M 17.95,57.185 L 17.95,39.997 L 20.231,39.997 L 20.231,47.06 L 29.122,47.06 L 29.122,39.997 L 31.403,39.997 L 31.403,57.185 L 29.122,57.185 L 29.122,49.091 L 20.231,49.091 L 20.231,57.185 L 17.95,57.185 z "
   id="path97" />
</g>
<path
   d="M 35.3892,51.666625 L 35.3892,50.051625 L 63.60325,50.051625 L 64.4117,50.859125 L 63.60325,51.666625 L 35.3892,51.666625 z "
   id="polygon99" />
</svg>